<svg width="22" height="22" viewBox="0 0 22 22" fill="none" xmlns="http://www.w3.org/2000/svg">
<path fill-rule="evenodd" clip-rule="evenodd" d="M11 0C4.92422 0 0 4.92422 0 11C0 17.0758 4.92422 22 11 22C17.0758 22 22 17.0758 22 11C22 4.92422 17.0758 0 11 0ZM16.1777 15.11C16.4484 15.3764 16.4527 15.8104 16.1885 16.0832C15.9221 16.3539 15.4881 16.3582 15.2152 16.0939L11 11.9625L6.78477 16.0918C6.51406 16.3582 6.07793 16.3539 5.81152 16.0811C5.54512 15.8104 5.54941 15.3742 5.82227 15.1078L10.0182 11L5.82227 6.89004C5.55156 6.62363 5.54727 6.18965 5.81152 5.9168C6.07793 5.64609 6.51191 5.6418 6.78477 5.90605L11 10.0375L15.2152 5.9082C15.4859 5.6418 15.9221 5.64609 16.1885 5.91895C16.4549 6.18965 16.4506 6.62578 16.1777 6.89219L11.9818 11L16.1777 15.11Z" fill="#FF4339"/>
</svg>
