<svg width="24" height="25" viewBox="0 0 24 25" fill="none" xmlns="http://www.w3.org/2000/svg">
<path fill-rule="evenodd" clip-rule="evenodd" d="M16.5873 9.14654L13.234 12.4999L16.5873 15.8539C16.8147 16.0799 16.8147 16.4479 16.588 16.6752C16.588 16.6759 16.5873 16.6759 16.5873 16.6759L16.176 17.0872C15.9493 17.3145 15.5813 17.3145 15.354 17.0879C15.354 17.0872 15.3533 17.0872 15.3533 17.0872L12 13.7339L8.64667 17.0872C8.42 17.3145 8.052 17.3145 7.82467 17.0879C7.82467 17.0872 7.824 17.0872 7.824 17.0872L7.41267 16.6759C7.18533 16.4492 7.18533 16.0805 7.412 15.8539H7.41267L10.766 12.4999L7.41267 9.14654C7.18533 8.91988 7.18533 8.55121 7.412 8.32454C7.41267 8.32454 7.41267 8.32454 7.41267 8.32388L7.824 7.91254C8.05067 7.68588 8.41933 7.68521 8.646 7.91188C8.64667 7.91188 8.64667 7.91188 8.64667 7.91254L12 11.2659L15.3533 7.91254C15.5807 7.68588 15.9487 7.68521 16.1753 7.91188C16.176 7.91188 16.176 7.91188 16.176 7.91254L16.5873 8.32388C16.81 8.55254 16.81 8.91721 16.5873 9.14654ZM12 22.9512C6.228 22.9512 1.54867 18.2719 1.54867 12.4999C1.54867 6.72788 6.228 2.04921 12 2.04921C17.772 2.04921 22.4513 6.72788 22.4513 12.4999C22.4513 18.2719 17.772 22.9512 12 22.9512ZM12 0.499878C5.37267 0.499878 0 5.87254 0 12.4999C0 19.1279 5.37267 24.4999 12 24.4999C18.628 24.4999 24 19.1279 24 12.4999C24 5.87254 18.628 0.499878 12 0.499878Z" fill="white"/>
</svg>
