<svg width="22" height="22" viewBox="0 0 22 22" fill="none" xmlns="http://www.w3.org/2000/svg">
<path fill-rule="evenodd" clip-rule="evenodd" d="M11 0C4.92472 0 0 4.92472 0 11C0 17.0753 4.92472 22 11 22C17.0753 22 22 17.0753 22 11C22 4.92472 17.0753 0 11 0ZM18.6494 7.38638L9.44313 15.5256C9.16611 15.7772 8.71627 15.7772 8.43924 15.5256L4.92206 12.4716C4.64503 12.22 4.64503 11.8113 4.92206 11.5596C5.19909 11.308 5.64903 11.308 5.92606 11.5596L8.94232 14.1586L17.6454 6.47445C17.9225 6.2228 18.3723 6.2228 18.6494 6.47445C18.9264 6.72609 18.9264 7.13473 18.6494 7.38638Z" fill="#7DD321"/>
</svg>
