<svg width="22" height="22" viewBox="0 0 22 22" fill="none" xmlns="http://www.w3.org/2000/svg">
<path d="M11 0C17.0758 0 22 4.92422 22 11C22 17.0758 17.0758 22 11 22C4.92422 22 0 17.0758 0 11C0 4.92422 4.92422 0 11 0ZM11.1101 15.9304C10.4965 15.9304 10 16.4278 10 17.0415C10 17.6552 10.4972 18.1526 11.1101 18.1526C11.7228 18.1526 12.2198 17.6552 12.2198 17.0415C12.2198 16.4278 11.7228 15.9304 11.1101 15.9304ZM11.1097 4.15263C10.4967 4.15263 10 4.65002 10 5.26374V12.1526C10 12.7664 10.4967 13.2637 11.1097 13.2637C11.7226 13.2637 12.2193 12.7664 12.2193 12.1526V5.26374C12.2193 4.65002 11.7226 4.15263 11.1097 4.15263Z" fill="#F7E93A"/>
</svg>
